<?xml version="1.0" standalone="no"?>
<!DOCTYPE svg PUBLIC "-//W3C//DTD SVG 20010904//EN"
 "http://www.w3.org/TR/2001/REC-SVG-20010904/DTD/svg10.dtd">
<svg version="1.0" xmlns="http://www.w3.org/2000/svg"
 width="1000.000000pt" height="1000.000000pt" viewBox="0 0 1000.000000 1000.000000"
 preserveAspectRatio="xMidYMid meet">
<metadata>
Created by potrace 1.14, written by Peter Selinger 2001-2017
</metadata>
<g transform="translate(0.000000,1000.000000) scale(0.100000,-0.100000)"
fill="#000000" stroke="none">
<path d="M4203 9436 c-21 -18 -40 -51 -59 -104 -32 -86 -30 -80 -33 -142 -1
-38 -5 -47 -30 -62 -47 -26 -61 -56 -62 -139 -2 -85 9 -118 46 -147 23 -19 25
-26 21 -69 -3 -26 -8 -70 -11 -98 -10 -102 -14 -133 -30 -240 -19 -127 -60
-361 -75 -420 -21 -87 -58 -255 -59 -267 -1 -5 -17 -8 -37 -8 -19 0 -45 -5
-57 -12 -54 -29 -67 -60 -67 -165 0 -84 1 -90 31 -127 l32 -38 -26 -81 c-62
-201 -205 -578 -226 -600 -5 -4 -37 -10 -72 -12 l-64 -5 -2 38 c-2 37 -9 105
-18 173 -3 28 1 42 18 60 18 19 22 36 23 89 1 120 -5 148 -43 188 -20 20 -37
48 -38 62 -1 14 -5 48 -9 75 -4 28 -8 70 -10 95 -2 25 -7 68 -10 95 -22 179
-29 295 -17 295 16 0 40 65 36 97 -1 15 -6 57 -10 92 -6 49 -13 70 -35 95 -27
29 -32 31 -97 31 -37 -1 -93 -4 -125 -8 l-56 -7 -6 37 c-4 21 -9 65 -12 98 -2
33 -7 75 -9 94 -3 26 2 42 21 65 24 28 25 34 20 110 -9 135 -17 155 -72 181
-28 13 -49 15 -102 10 -37 -4 -78 -9 -92 -10 -14 -1 -59 -6 -100 -9 -41 -4
-104 -11 -140 -16 -36 -4 -72 -8 -80 -8 -14 0 -59 -5 -160 -17 -25 -3 -70 -7
-100 -10 -49 -4 -80 -8 -180 -20 -14 -2 -63 -6 -110 -10 -165 -14 -196 -45
-184 -188 7 -91 13 -108 54 -152 24 -25 29 -41 34 -100 3 -38 8 -95 11 -126 5
-42 3 -56 -7 -57 -116 -8 -194 -19 -217 -31 -42 -23 -56 -52 -55 -115 3 -129
19 -182 64 -206 15 -8 20 -21 20 -53 0 -23 4 -58 10 -77 5 -19 14 -100 20
-180 6 -80 14 -165 17 -190 3 -25 6 -54 7 -65 1 -11 -8 -33 -21 -48 -19 -24
-27 -52 -25 -87 3 -54 15 -137 22 -155 5 -12 20 -31 34 -43 16 -12 28 -33 30
-53 8 -57 17 -141 22 -209 3 -36 7 -76 10 -90 6 -34 17 -157 18 -200 1 -21 -4
-34 -10 -33 -7 1 -29 -13 -50 -31 l-39 -34 2 -78 c2 -44 5 -88 7 -99 3 -11 5
-26 5 -34 1 -7 16 -28 35 -46 32 -30 35 -39 41 -106 4 -40 8 -86 10 -103 3
-17 7 -58 10 -91 3 -33 8 -81 11 -107 l5 -47 -38 -10 c-21 -6 -44 -11 -50 -11
-7 0 -13 -4 -13 -9 0 -5 -8 -8 -17 -6 -10 1 -22 -1 -28 -5 -5 -5 -13 -9 -17
-9 -5 -1 -9 -1 -10 -2 -13 -4 -45 -10 -55 -11 -7 -1 -13 -4 -13 -8 0 -4 -6 -7
-12 -8 -16 -1 -30 -5 -88 -22 -25 -8 -48 -14 -52 -16 -5 -1 -10 -3 -13 -4 -7
-3 -22 -7 -36 -9 -5 0 -7 -6 -3 -13 4 -6 3 -8 -4 -4 -13 8 -102 -15 -102 -27
0 -4 -3 -6 -7 -4 -5 3 -18 1 -31 -4 -17 -7 -22 -14 -17 -28 3 -11 8 -29 10
-40 2 -12 7 -26 10 -32 4 -5 9 -25 12 -42 3 -18 10 -35 16 -39 6 -4 9 -10 5
-13 -3 -4 2 -31 12 -60 10 -29 16 -56 13 -59 -4 -3 -2 -6 3 -6 5 0 11 -12 12
-27 1 -15 5 -29 10 -32 4 -3 8 -13 8 -21 1 -8 3 -24 5 -35 3 -14 -1 -20 -13
-19 -10 1 -18 -1 -18 -5 0 -7 -7 -9 -50 -13 -11 -1 -20 -7 -20 -12 0 -5 -3 -6
-7 -3 -3 4 -11 3 -17 -2 -6 -5 -24 -11 -41 -14 -16 -3 -43 -10 -60 -17 -16 -6
-31 -11 -32 -11 -2 1 -4 1 -5 0 -18 -5 -47 -11 -60 -12 -10 -1 -18 -4 -18 -8
0 -4 -12 -9 -28 -11 -43 -8 -57 -12 -64 -23 -5 -6 -8 -4 -8 5 0 13 -2 13 -9 1
-5 -8 -24 -16 -42 -18 -18 -2 -38 -8 -45 -14 -7 -6 -18 -8 -24 -4 -5 3 -10 2
-10 -4 0 -6 -7 -7 -17 -4 -12 5 -14 3 -8 -8 8 -12 6 -12 -8 0 -10 8 -17 9 -17
3 0 -9 -34 -21 -75 -28 -5 -1 -13 -3 -17 -4 -5 -1 -12 -3 -17 -4 -5 0 -13 -4
-17 -8 -4 -5 -18 -8 -31 -8 -13 0 -23 -4 -23 -10 0 -5 -6 -7 -14 -4 -8 3 -16
2 -19 -3 -6 -10 380 -393 387 -385 4 3 6 0 6 -7 0 -16 46 -62 54 -54 3 4 6 2
6 -4 0 -5 9 -20 20 -33 16 -19 18 -26 7 -38 -10 -13 -9 -14 3 -7 12 7 13 6 4
-6 -6 -8 -12 -21 -12 -29 -1 -8 -4 -28 -6 -45 -3 -16 -8 -50 -12 -75 -3 -25
-10 -52 -14 -60 -4 -8 -6 -25 -5 -38 1 -12 -3 -22 -9 -22 -6 0 -4 -5 4 -10 12
-8 12 -10 1 -10 -8 0 -11 -7 -8 -20 3 -11 1 -22 -4 -25 -5 -4 -9 -16 -9 -28
-1 -37 -7 -81 -15 -99 -3 -9 -8 -31 -10 -50 -2 -18 -4 -33 -5 -33 -2 0 -4 -9
-6 -20 -2 -11 -6 -38 -10 -60 -3 -22 -6 -46 -7 -52 0 -7 -5 -13 -11 -13 -6 0
-6 -4 2 -12 8 -8 15 -8 28 3 16 12 17 12 9 -1 -8 -13 -6 -13 8 -2 9 8 20 11
26 8 5 -3 11 -2 13 3 1 6 17 13 33 16 37 8 44 10 75 22 14 6 28 9 32 6 4 -2
21 3 38 12 16 8 32 15 35 15 3 0 6 0 8 1 1 0 9 2 18 4 9 1 26 6 37 9 18 6 24
-4 55 -101 209 -651 611 -1264 1132 -1724 28 -24 52 -47 55 -50 3 -3 48 -39
100 -81 359 -287 778 -514 1223 -662 117 -39 348 -101 411 -111 21 -3 41 -7
45 -9 3 -2 28 -7 55 -10 27 -4 52 -9 55 -10 3 -2 29 -6 56 -10 28 -3 60 -8 73
-10 13 -3 58 -8 100 -12 42 -3 86 -8 97 -11 11 -3 139 -6 285 -8 271 -2 371 3
575 31 22 3 51 7 65 9 22 2 99 15 185 30 17 3 95 22 175 41 386 96 779 262
1120 473 340 212 644 473 915 787 107 123 107 124 209 266 229 319 417 689
536 1050 41 126 42 127 67 117 13 -5 29 -7 34 -3 5 3 9 1 9 -5 0 -5 15 -13 33
-16 17 -4 38 -12 45 -17 8 -7 12 -7 12 2 0 9 7 7 20 -5 11 -10 20 -15 20 -12
0 3 18 0 41 -8 23 -8 45 -13 49 -10 5 3 10 0 12 -5 2 -6 19 -13 38 -16 19 -4
38 -10 41 -16 3 -5 9 -2 13 7 3 9 4 21 0 26 -5 9 -12 36 -19 79 -2 14 -7 36
-10 50 -4 14 -8 34 -9 45 -2 11 -6 28 -11 38 -4 9 -5 23 -2 31 3 7 -1 23 -8
34 -8 10 -12 21 -10 24 2 2 -2 31 -10 63 -7 33 -11 63 -9 67 3 5 0 8 -6 8 -6
0 -8 5 -4 11 3 6 0 15 -7 20 -11 6 -11 9 -1 9 9 0 7 8 -5 27 -14 21 -15 25 -3
19 12 -7 12 -6 3 4 -6 7 -9 19 -6 26 3 8 0 14 -6 14 -6 0 -8 7 -4 16 3 9 0 20
-8 25 -11 7 -11 9 -1 9 9 0 10 5 4 17 -10 17 6 43 27 43 6 0 10 4 9 8 -2 5 27
39 65 77 37 37 67 72 67 77 0 5 5 6 10 3 6 -3 10 -2 10 3 0 14 47 62 54 55 3
-4 6 -1 6 4 0 17 87 103 96 95 4 -4 4 -2 0 5 -4 7 4 19 19 29 14 9 25 22 25
29 0 8 9 16 19 20 11 3 23 15 26 26 4 10 9 18 13 16 4 -1 21 12 39 30 17 18
26 33 20 33 -7 0 -6 5 3 11 12 9 11 10 -7 6 -12 -3 -23 -1 -25 3 -2 4 -14 10
-28 12 -14 1 -28 6 -31 10 -3 5 -17 9 -32 10 -15 1 -27 6 -27 11 0 5 -6 7 -14
4 -8 -3 -19 0 -25 7 -6 7 -22 12 -36 10 -14 -1 -25 3 -25 9 0 5 -3 8 -6 4 -4
-3 -18 0 -33 7 -14 7 -32 11 -38 9 -7 -3 -13 1 -13 8 0 7 -3 10 -6 6 -3 -3
-30 3 -59 13 -29 10 -56 16 -59 13 -3 -4 -6 -2 -6 4 0 6 -7 14 -16 17 -10 4
-13 2 -8 -7 5 -7 0 -5 -11 3 -10 8 -20 14 -22 13 -1 -2 -4 -3 -5 -2 -2 0 -11
2 -20 5 -35 8 -41 10 -98 32 -8 3 -22 6 -30 7 -8 1 -28 7 -43 13 -16 7 -37 12
-48 12 -10 0 -19 4 -19 8 0 5 -7 9 -15 10 -8 1 -22 3 -31 4 -12 1 -14 8 -10
32 4 17 7 37 8 44 1 6 5 12 9 12 4 0 5 9 2 20 -3 11 -1 20 5 20 6 0 9 9 7 20
-2 11 0 20 4 20 4 0 8 6 9 13 2 22 7 42 15 55 5 6 5 16 2 22 -3 5 1 20 10 33
8 13 12 27 8 30 -3 4 -1 7 5 7 6 0 9 7 6 15 -4 8 -1 15 4 15 6 0 9 11 6 24 -2
14 0 28 6 31 5 3 10 15 10 26 0 11 -5 17 -10 14 -5 -3 -10 -1 -10 5 0 6 -4 9
-8 6 -9 -5 -77 16 -88 27 -4 4 -18 7 -31 7 -12 0 -23 4 -23 10 0 5 -7 7 -15 4
-8 -4 -15 -1 -15 5 0 6 -6 8 -14 5 -23 -9 -28 12 -17 73 13 74 25 170 25 206
0 15 6 28 13 28 49 5 72 20 83 54 16 49 -1 99 -41 115 l-29 13 4 84 c3 46 7
87 10 91 2 4 7 27 10 52 3 25 8 56 10 70 3 14 10 52 15 85 12 65 19 130 35
310 11 131 15 145 35 145 28 0 64 33 76 71 9 26 19 35 41 39 62 11 91 53 99
147 11 114 14 139 24 190 6 29 13 74 16 100 4 26 8 56 11 65 9 30 14 63 19
108 2 25 5 45 6 45 0 0 3 39 4 87 3 76 1 90 -17 113 -11 15 -31 30 -43 35 -17
6 -24 19 -28 52 -4 28 -14 50 -30 64 -22 19 -23 25 -18 95 3 40 9 73 14 72 4
-2 17 -3 30 -3 41 0 55 21 62 93 6 73 19 117 34 117 10 0 28 48 25 68 -1 6 -2
19 -3 27 0 8 -12 22 -26 31 -22 14 -26 14 -54 -2 -47 -28 -54 -101 -12 -124
13 -6 17 -17 14 -35 -3 -14 -9 -25 -13 -25 -8 0 -75 65 -217 212 l-102 106 3
93 c3 87 5 94 25 97 21 3 39 42 28 59 -5 8 -77 308 -113 473 -13 60 -13 66 3
78 9 6 20 12 24 12 9 0 29 57 29 85 0 29 -30 63 -68 76 -78 27 -155 -79 -107
-148 13 -19 12 -24 -12 -59 -35 -52 -106 -171 -128 -214 -10 -19 -29 -53 -43
-75 -14 -22 -24 -42 -23 -44 2 -2 -1 -7 -6 -10 -14 -9 -73 -119 -73 -135 0 -7
9 -20 20 -27 20 -13 20 -16 6 -57 -8 -23 -16 -46 -16 -50 -7 -79 -4 -76 -154
-158 -77 -43 -143 -80 -146 -84 -5 -5 -33 -19 -96 -46 -30 -13 -30 -13 -26 17
3 19 10 29 22 29 9 0 25 15 35 34 16 29 17 38 5 65 -25 62 -81 64 -106 4 -13
-29 -13 -41 -2 -71 13 -40 18 -82 8 -82 -3 0 -20 20 -38 44 -79 113 -217 163
-358 131 -57 -13 -128 -51 -158 -84 -15 -17 -22 -18 -33 -9 -17 14 -257 138
-470 243 -150 74 -151 75 -144 103 24 84 -15 195 -97 276 -104 101 -259 96
-364 -12 -58 -59 -88 -117 -92 -177 -2 -25 -5 -48 -7 -50 -4 -4 -25 -9 -84
-20 -16 -3 -42 -8 -57 -11 -15 -3 -31 -6 -35 -6 -5 0 -18 -4 -31 -9 -12 -5
-33 -11 -45 -13 -12 -3 -60 -15 -107 -26 -47 -12 -96 -24 -110 -26 -14 -3 -59
-14 -100 -25 -109 -30 -130 -33 -130 -20 0 23 -84 101 -134 126 -65 31 -95 37
-178 38 -152 1 -290 -118 -318 -274 -17 -94 -18 -150 -3 -221 30 -148 90 -239
191 -294 5 -3 10 -38 17 -129 7 -97 10 -119 26 -240 6 -44 13 -96 15 -115 5
-45 15 -117 19 -138 1 -10 6 -46 9 -82 4 -36 9 -77 11 -90 3 -14 8 -41 11 -60
2 -19 7 -46 10 -60 3 -20 -2 -29 -26 -42 l-31 -18 -15 35 c-8 19 -14 36 -14
39 0 3 -5 17 -12 33 -6 15 -34 97 -63 180 l-51 153 27 26 c32 30 42 66 42 139
-1 99 -18 140 -68 161 -19 8 -47 14 -63 14 -27 0 -31 4 -42 48 -6 26 -14 58
-16 72 -3 14 -9 41 -14 60 -5 19 -11 49 -14 65 -3 17 -10 53 -16 80 -6 28 -13
70 -16 95 -3 25 -16 101 -29 170 -13 69 -27 152 -30 185 -4 33 -9 71 -11 85
-2 14 -6 50 -9 80 -3 30 -7 74 -10 98 -4 38 -1 46 27 71 30 27 33 34 36 106 6
102 -8 147 -52 170 -31 17 -34 22 -39 83 -8 77 -50 192 -83 223 -15 14 -41 24
-72 27 -41 3 -52 0 -79 -22z m1830 -940 c9 -21 33 -44 57 -58 37 -21 40 -26
35 -53 -6 -32 -11 -70 -19 -175 -10 -117 -17 -165 -27 -174 -5 -6 -9 -7 -9 -4
0 3 -17 2 -37 -3 -21 -5 -46 -11 -56 -14 -31 -7 -110 -50 -135 -73 -45 -41
-52 -39 -157 36 -192 136 -285 201 -328 225 -42 25 -46 30 -36 49 6 12 11 37
11 58 l-1 36 157 42 c86 24 166 45 177 47 11 3 88 24 170 49 83 24 157 44 166
45 8 0 23 -14 32 -33z m466 -46 c47 -27 296 -165 436 -240 128 -69 120 -61
117 -129 -4 -67 1 -63 -97 -84 -5 -2 -14 -5 -20 -9 -15 -9 -207 -85 -235 -93
-14 -4 -47 -18 -75 -30 -109 -49 -109 -49 -155 5 -46 54 -126 112 -183 131
-33 12 -37 17 -33 39 3 14 8 48 12 75 3 28 8 53 11 58 2 4 6 33 9 65 3 31 6
66 8 77 2 11 4 34 5 50 1 27 6 32 44 42 23 6 55 25 71 42 17 17 31 31 32 31 2
0 26 -13 53 -30z m1283 -365 c12 -5 12 -16 -3 -72 -9 -37 -22 -69 -28 -71 -8
-3 -10 4 -6 20 5 20 11 74 14 116 1 14 3 14 23 7z m-2415 -178 c71 -52 162
-113 201 -136 40 -23 72 -47 72 -52 0 -6 -6 -25 -14 -42 -54 -117 -45 -303 19
-427 9 -18 13 -36 8 -40 -7 -6 -66 -49 -248 -179 -27 -20 -61 -46 -74 -58 -15
-13 -29 -19 -35 -14 -25 20 -88 51 -104 51 -30 0 -41 14 -46 61 -3 25 -12 64
-20 87 -15 41 -33 131 -41 195 -3 32 -40 260 -49 307 -13 70 -37 242 -34 245
1 2 23 6 48 10 63 9 124 38 146 69 11 14 24 24 30 22 6 -3 69 -47 141 -99z
m1742 -144 c23 -54 67 -87 155 -117 12 -4 16 -12 13 -24 -5 -18 -81 -202 -97
-237 -16 -36 -48 -109 -74 -175 -15 -36 -31 -74 -35 -85 -5 -11 -19 -45 -31
-75 -12 -30 -38 -81 -57 -113 -19 -32 -36 -63 -38 -70 -13 -52 -16 -54 -73
-60 -31 -3 -64 -8 -73 -11 -11 -5 -35 17 -84 75 -38 45 -74 87 -80 93 -5 6
-37 43 -70 81 -33 39 -64 73 -69 77 -5 3 7 28 26 55 47 64 77 133 92 214 13
64 13 161 1 199 -5 16 6 23 87 49 93 29 316 117 353 139 31 18 42 14 54 -15z
m407 -170 c-4 -27 -9 -64 -11 -83 -16 -137 -30 -229 -46 -323 -11 -59 -20
-122 -21 -141 -2 -43 25 -84 61 -97 23 -8 28 -16 28 -44 0 -43 18 -79 47 -95
l22 -11 -32 -162 c-18 -89 -35 -178 -38 -197 -9 -63 -26 -184 -31 -225 -6 -44
-15 -109 -21 -140 -2 -11 -8 -39 -15 -61 -9 -35 -15 -41 -36 -41 -34 0 -71
-40 -78 -85 -5 -31 -2 -42 19 -63 14 -14 32 -25 40 -25 12 0 12 -8 1 -57 -8
-32 -14 -59 -14 -60 -1 -2 -1 -11 -1 -20 -1 -16 -2 -16 -10 -2 -5 8 -11 26
-13 40 -2 13 -7 31 -10 39 -3 8 -18 49 -32 90 -14 41 -32 88 -39 105 -18 39
-40 98 -42 108 -1 4 -2 8 -3 10 -1 1 -19 54 -41 117 -31 90 -37 117 -27 125
24 19 50 85 61 157 10 60 -42 211 -88 261 l-26 28 40 98 c22 55 40 105 40 113
0 8 4 18 8 24 4 5 18 34 29 64 12 30 42 109 68 175 26 66 58 154 71 195 14 41
28 82 31 90 4 8 7 17 8 20 0 3 9 28 19 57 14 43 22 53 44 56 15 2 31 5 35 6 5
0 6 -20 3 -46z m-3197 -448 c22 -88 50 -190 61 -227 51 -172 59 -202 55 -207
-11 -10 -318 -6 -322 5 -2 6 1 24 8 40 9 24 30 93 64 214 6 21 46 172 51 190
2 8 11 46 20 83 9 38 17 67 19 65 2 -2 21 -75 44 -163z m1551 -107 c30 -14 62
-28 72 -31 13 -5 15 -12 8 -44 -10 -43 -16 -79 -24 -138 -3 -22 -11 -74 -16
-115 -14 -96 -18 -131 -25 -205 -9 -93 -12 -115 -16 -120 -3 -2 -20 -7 -39
-10 -37 -6 -107 -44 -135 -71 -14 -15 -22 -10 -88 50 -216 197 -242 223 -230
237 14 18 42 117 41 149 -1 45 1 49 50 81 53 36 149 106 261 191 42 31 78 56
81 54 3 -1 30 -14 60 -28z m449 -45 c9 -10 57 -65 106 -123 49 -58 92 -107 96
-110 3 -3 26 -28 52 -57 l45 -52 -13 -43 c-12 -42 -13 -87 -1 -150 5 -33 5
-33 -102 -93 -59 -33 -140 -78 -182 -100 l-75 -41 -55 58 c-36 38 -66 60 -87
64 -18 4 -31 9 -29 13 4 6 10 41 21 136 3 28 8 61 10 75 2 14 6 54 10 90 3 36
8 85 11 110 2 25 6 80 8 123 2 43 6 80 8 83 3 2 24 7 47 10 23 3 54 10 69 14
39 12 41 12 61 -7z m-1067 -570 c2 -5 32 -32 68 -62 36 -30 72 -61 81 -70 8
-9 51 -50 94 -91 l80 -75 0 -91 c0 -81 3 -94 27 -132 16 -24 23 -44 18 -47 -6
-3 -10 -1 -10 5 0 6 -5 8 -12 4 -15 -10 -48 -13 -48 -5 0 3 -25 5 -55 5 -47
-1 -57 2 -67 20 -6 11 -17 25 -24 29 -8 4 -14 15 -14 22 0 8 -4 15 -8 15 -5 0
-26 35 -48 78 -21 42 -46 88 -55 102 -41 64 -132 240 -127 246 2 2 19 14 38
28 36 25 56 31 62 19z m1502 -215 c22 -18 65 -35 103 -41 12 -2 24 -5 27 -8 2
-2 6 -83 10 -179 3 -96 9 -194 12 -216 3 -26 1 -44 -5 -49 -6 -3 -11 -3 -11 2
0 8 -13 10 -97 15 -24 1 -43 5 -43 8 0 3 -8 6 -17 7 -67 3 -103 8 -103 15 0 5
-8 5 -17 0 -12 -7 -24 -5 -40 5 -19 12 -23 13 -23 2 0 -12 -2 -12 -9 0 -6 8
-11 9 -15 3 -4 -7 -17 -6 -40 3 -25 11 -36 11 -44 3 -9 -9 -12 -9 -12 0 0 6
-10 12 -22 12 -13 0 -33 1 -45 1 -13 0 -25 5 -29 10 -4 6 -11 6 -20 -2 -11 -9
-14 -9 -14 1 0 10 -3 10 -15 0 -9 -7 -15 -8 -15 -2 0 6 -11 9 -25 7 -31 -3
-31 0 -2 39 27 35 44 83 51 141 3 22 5 42 5 45 1 3 18 14 39 25 20 10 50 28
67 40 44 30 99 60 210 115 90 45 100 48 109 33 5 -10 19 -26 30 -35z m-2336
-104 l72 -15 -20 -29 c-11 -15 -20 -31 -20 -34 0 -22 -87 -128 -116 -142 -19
-9 -34 -21 -34 -26 0 -6 -16 -8 -35 -6 -19 2 -35 0 -35 -5 0 -4 -5 -5 -10 -2
-6 4 -17 2 -25 -5 -8 -7 -15 -7 -19 -1 -5 8 -26 8 -46 1 -15 -6 -36 -4 -47 4
-8 5 -13 5 -13 -1 0 -5 -12 -10 -27 -10 -58 -1 -152 -11 -162 -18 -6 -3 -11
-1 -11 5 0 6 -5 8 -12 3 -7 -4 -33 -9 -58 -10 -25 -2 -51 -5 -59 -8 -40 -15
57 109 134 172 96 78 205 125 330 141 71 9 115 6 213 -14z m2652 -129 c11 -25
29 -66 41 -92 l20 -47 -23 19 c-12 11 -31 27 -41 36 -13 12 -19 32 -20 73 -1
31 -1 56 1 56 1 0 12 -20 22 -45z m-2376 -14 c18 -20 18 -21 -7 -30 -14 -6
-45 -22 -67 -36 -23 -15 -43 -25 -45 -23 -2 2 13 31 33 65 39 65 47 67 86 24z
m54 -53 c7 -7 12 -17 12 -24 0 -15 -43 -24 -63 -12 -9 5 -18 4 -21 -1 -3 -5
-15 -7 -27 -4 -18 5 -13 10 27 29 59 27 57 27 72 12z m2360 -94 c20 -18 34
-34 32 -36 -20 -13 -49 -30 -71 -43 l-27 -14 2 68 c1 77 5 79 64 25z m70 -110
l11 -35 -32 2 c-18 2 -36 5 -42 8 -5 3 -16 6 -23 7 -26 4 -23 12 15 32 53 27
58 26 71 -14z"/>
</g>
</svg>
